<svg width="138" height="17" viewBox="0 0 138 17" fill="none" xmlns="http://www.w3.org/2000/svg">
    <path d="M21.1538 11.4678V11.7978C21.1538 13.3525 20.6552 14.4452 19.6578 15.0758C18.6752 15.6918 16.9592 15.9998 14.5098 15.9998H0.693848V0.59984H14.0478C16.4825 0.59984 18.1985 0.871174 19.1958 1.41384C20.2078 1.94184 20.7138 2.90251 20.7138 4.29584V4.51584C20.7138 5.63051 20.4718 6.45918 19.9878 7.00184C19.5038 7.54451 18.7925 7.88184 17.8538 8.01384V8.12384C18.9098 8.21184 19.7165 8.51251 20.2738 9.02584C20.8458 9.53917 21.1392 10.3532 21.1538 11.4678ZM13.5858 3.85584H5.00585V6.58384H13.6958C14.7225 6.58384 15.4265 6.49584 15.8078 6.31984C16.2038 6.12918 16.4018 5.78451 16.4018 5.28584V5.19784C16.4018 4.68451 16.2038 4.33251 15.8078 4.14184C15.4118 3.95117 14.6712 3.85584 13.5858 3.85584ZM13.5638 9.66384H5.00585V12.7438H13.5638C14.8545 12.7438 15.7198 12.6485 16.1598 12.4578C16.6145 12.2525 16.8418 11.8492 16.8418 11.2478V11.1598C16.8418 10.5438 16.6145 10.1405 16.1598 9.94984C15.7198 9.75918 14.8545 9.66384 13.5638 9.66384Z" fill="white"/>
    <path d="M32.2759 16.2198H30.8459C28.1912 16.2198 26.2405 15.8092 24.9939 14.9878C23.7472 14.1518 23.1239 12.6998 23.1239 10.6318V9.70784C23.1239 7.63984 23.7472 6.19517 24.9939 5.37384C26.2405 4.53784 28.1912 4.11984 30.8459 4.11984H32.2759C34.9452 4.11984 36.8959 4.53784 38.1279 5.37384C39.3745 6.19517 39.9979 7.63984 39.9979 9.70784V10.6318C39.9979 12.6998 39.3745 14.1518 38.1279 14.9878C36.8959 15.8092 34.9452 16.2198 32.2759 16.2198ZM28.0739 12.7218C28.7485 13.0738 29.9145 13.2498 31.5719 13.2498C33.2292 13.2498 34.3952 13.0738 35.0699 12.7218C35.7445 12.3552 36.0819 11.5998 36.0819 10.4558V9.88384C36.0819 8.75451 35.7372 8.00651 35.0479 7.63984C34.3732 7.27317 33.2145 7.08984 31.5719 7.08984C29.9145 7.08984 28.7485 7.27317 28.0739 7.63984C27.3992 7.99184 27.0619 8.73984 27.0619 9.88384V10.4558C27.0619 11.5998 27.3992 12.3552 28.0739 12.7218Z" fill="white"/>
    <path d="M41.731 16.2198H40.301C37.6463 16.2198 35.6956 15.8092 34.449 14.9878C33.2023 14.1518 32.579 12.6998 32.579 10.6318V9.70784C32.579 7.63984 33.2023 6.19517 34.449 5.37384C35.6956 4.53784 37.6463 4.11984 40.301 4.11984H41.731C44.4003 4.11984 46.351 4.53784 47.583 5.37384C48.8296 6.19517 49.453 7.63984 49.453 9.70784V10.6318C49.453 12.6998 48.8296 14.1518 47.583 14.9878C46.351 15.8092 44.4003 16.2198 41.731 16.2198ZM37.529 12.7218C38.2036 13.0738 39.3696 13.2498 41.027 13.2498C42.6843 13.2498 43.8503 13.0738 44.525 12.7218C45.1996 12.3552 45.537 11.5998 45.537 10.4558V9.88384C45.537 8.75451 45.1923 8.00651 44.503 7.63984C43.8283 7.27317 42.6696 7.08984 41.027 7.08984C39.3696 7.08984 38.2036 7.27317 37.529 7.63984C36.8543 7.99184 36.517 8.73984 36.517 9.88384V10.4558C36.517 11.5998 36.8543 12.3552 37.529 12.7218Z" fill="white"/>
    <path d="M55.258 13.0298V15.9998H51.32V0.59984H55.258V9.31184H55.368L62.078 4.33984H67.248L60.538 9.22384L67.908 15.9998H62.562L57.612 11.4018H57.502L55.258 13.0298Z" fill="white"/>
    <path d="M91.8561 0.59984V15.9998H85.4101L74.1461 4.42784H73.9921V15.9998H69.7681V0.59984H76.2141L87.4561 12.1938H87.6321V0.59984H91.8561Z" fill="white"/>
    <path d="M103.152 15.9999H101.722C99.0673 15.9999 97.1167 15.5892 95.87 14.7679C94.6233 13.9319 94 12.4799 94 10.4119V9.48788C94 7.41988 94.6233 5.97522 95.87 5.15388C97.1167 4.31788 99.0673 3.89988 101.722 3.89988H103.152C105.821 3.89988 107.772 4.31788 109.004 5.15388C110.251 5.97522 110.874 7.41988 110.874 9.48788V10.4119C110.874 12.4799 110.251 13.9319 109.004 14.7679C107.772 15.5892 105.821 15.9999 103.152 15.9999ZM98.95 12.5019C99.6247 12.8539 100.791 13.0299 102.448 13.0299C104.105 13.0299 105.271 12.8539 105.946 12.5019C106.621 12.1352 106.958 11.3799 106.958 10.2359V9.66388C106.958 8.53455 106.613 7.78655 105.924 7.41988C105.249 7.05322 104.091 6.86988 102.448 6.86988C100.791 6.86988 99.6247 7.05322 98.95 7.41988C98.2753 7.77188 97.938 8.51988 97.938 9.66388V10.2359C97.938 11.3799 98.2753 12.1352 98.95 12.5019Z" fill="white"/>
    <path d="M111.607 15.9999H110.177C107.522 15.9999 105.572 15.5892 104.325 14.7679C103.078 13.9319 102.455 12.4799 102.455 10.4119V9.48788C102.455 7.41988 103.078 5.97522 104.325 5.15388C105.572 4.31788 107.522 3.89988 110.177 3.89988H111.607C114.276 3.89988 116.227 4.31788 117.459 5.15388C118.706 5.97522 119.329 7.41988 119.329 9.48788V10.4119C119.329 12.4799 118.706 13.9319 117.459 14.7679C116.227 15.5892 114.276 15.9999 111.607 15.9999ZM107.405 12.5019C108.08 12.8539 109.246 13.0299 110.903 13.0299C112.56 13.0299 113.726 12.8539 114.401 12.5019C115.076 12.1352 115.413 11.3799 115.413 10.2359V9.66388C115.413 8.53455 115.068 7.78655 114.379 7.41988C113.704 7.05322 112.546 6.86988 110.903 6.86988C109.246 6.86988 108.08 7.05322 107.405 7.41988C106.73 7.77188 106.393 8.51988 106.393 9.66388V10.2359C106.393 11.3799 106.73 12.1352 107.405 12.5019Z" fill="white"/>
    <path d="M125.134 12.8099V15.7799H121.196V0.379883H125.134V9.09188H125.244L131.954 4.11988H137.124L130.414 9.00388L137.784 15.7799H132.438L127.488 11.1819H127.378L125.134 12.8099Z" fill="white"/>
    </svg>
    