<svg width="30" height="31" viewBox="0 0 30 31" fill="none" xmlns="http://www.w3.org/2000/svg">
    <path d="M20.2416 19.8215L16.4126 15.9808L3.61737 28.8878C3.77156 28.8412 3.93519 28.7706 4.10994 28.6744C4.24083 28.6026 4.55922 28.4281 5.0272 28.1718L5.05506 28.1565C7.68856 26.7138 14.9193 22.7525 20.2416 19.8215Z" fill="#2A2A2A"/>
    <path d="M20.9689 19.4209C21.4615 19.1496 21.9335 18.8892 22.3795 18.6432C22.6956 18.4689 22.9985 18.3018 23.2864 18.1431L23.288 18.1422C25.0764 17.1565 26.2819 16.4921 26.4265 16.4201C27.0945 16.0637 27.7848 15.1208 26.4265 14.3885C26.0058 14.1676 23.8168 12.9636 20.9658 11.3878L16.9743 15.4142L20.9689 19.4209Z" fill="#2A2A2A"/>
    <path d="M20.2254 11.0014C17.8601 9.7075 4.96399 2.65362 4.10972 2.19796C3.94742 2.10121 3.77454 2.03611 3.60065 2L16.4109 14.8491L20.2254 11.0014Z" fill="#2A2A2A"/>
    <path d="M2.62138 2.14781L15.8492 15.4157L2.57198 28.809C2.19655 28.5552 2 28.0245 2 27.3543V3.57876C2 2.83763 2.26054 2.38161 2.62138 2.14781Z" fill="#2A2A2A"/>
    </svg>
    