<svg width="25" height="29" viewBox="0 0 25 29" fill="none" xmlns="http://www.w3.org/2000/svg">
    <path d="M20.2908 14.8905C20.2773 12.5809 21.3237 10.8403 23.4369 9.55676C22.255 7.8635 20.4669 6.93221 18.1099 6.75272C15.8782 6.57662 13.4365 8.05314 12.5425 8.05314C11.5976 8.05314 9.43703 6.81368 7.73699 6.81368C4.22856 6.86786 0.5 9.61094 0.5 15.1919C0.5 16.8412 0.8014 18.5446 1.4042 20.2988C2.21019 22.6084 5.11583 28.2673 8.14676 28.1758C9.73165 28.1386 10.8526 27.0515 12.915 27.0515C14.9164 27.0515 15.9527 28.1758 17.7205 28.1758C20.7785 28.1318 23.4064 22.9877 24.1718 20.6713C20.0707 18.7376 20.2908 15.0091 20.2908 14.8905ZM16.7316 4.56164C18.4486 2.52296 18.2928 0.667145 18.242 0C16.7248 0.0880495 14.9706 1.03289 13.9716 2.19447C12.871 3.4407 12.2241 4.98157 12.363 6.71886C14.0021 6.84416 15.4989 6.00091 16.7316 4.56164Z" fill="#2A2A2A"/>
    </svg>
    