<svg width="52" height="44" viewBox="0 0 52 44" fill="none" xmlns="http://www.w3.org/2000/svg">
    <path d="M27.6251 4.6235L8.66297 37.7701C6.81305 41.0059 8.14102 43.6583 11.6118 43.66L47.2283 43.7771C50.6956 43.791 52.2133 41.1429 50.5885 37.8977L33.9381 4.64173C32.3354 1.38305 29.4898 1.37876 27.6251 4.6235ZM38.6411 23.4492C39.4174 25.001 39.7859 26.7629 39.7081 28.5521C39.6302 30.3412 39.1091 32.0924 38.1985 33.6235C37.288 35.1548 36.0215 36.4102 34.5303 37.2596C33.0392 38.1089 31.3779 38.5212 29.7191 38.4535C29.613 38.5999 29.4803 38.7219 29.3296 38.8115C29.0237 38.9969 28.666 39.0464 28.3353 38.9493C28.0047 38.8522 27.7282 38.6163 27.5666 38.2936C27.5226 38.2256 27.486 38.1523 27.4573 38.0751C26.0097 37.6162 24.7017 36.7781 23.6478 35.634C22.5939 34.4901 21.8264 33.0753 21.4127 31.5138C20.999 29.9522 20.9517 28.2916 21.2749 26.6777C21.598 25.0638 22.2818 23.5457 23.2664 22.2569C24.2508 20.9681 25.5059 19.9477 26.9215 19.2853C28.337 18.6229 29.8698 18.3388 31.3854 18.4578C32.901 18.5769 34.353 19.0954 35.6142 19.968C36.8753 20.8406 37.9071 22.0406 38.6189 23.4627L38.6411 23.4492Z" fill="#C2C2C2"/>
    <path d="M1.96648 13.9994C2.94738 15.9694 4.59141 17.4468 6.5752 18.1413C6.6832 17.826 6.89161 17.559 7.16241 17.3889C7.31454 17.2968 7.48108 17.2372 7.65237 17.2138C7.82367 17.1903 7.99639 17.2034 8.16065 17.2523C8.32487 17.3011 8.4773 17.3848 8.60924 17.4985C8.74115 17.6122 8.84992 17.7536 8.9293 17.9147C9.0335 18.1224 9.0848 18.3575 9.07823 18.5972C10.9476 18.6188 12.7931 17.9748 14.3278 16.7652C15.8625 15.5556 17.0004 13.8482 17.5646 11.9086C18.1287 9.96897 18.0875 7.90581 17.4473 6.03995C16.8071 4.1741 15.6038 2.61005 14.0246 1.59118C12.4454 0.572259 10.5786 0.155522 8.71477 0.405783C6.85089 0.656045 5.09427 1.55926 3.71818 2.97496C2.34202 4.39069 1.42353 6.23963 1.10535 8.23413C0.787219 10.2287 1.08738 12.2571 1.95908 14.0039L1.96648 13.9994ZM11.891 7.98595C12.1438 8.49083 12.2489 9.07037 12.193 9.65129C12.137 10.2321 11.9225 10.7882 11.5768 11.249C11.2311 11.7098 10.7695 12.0548 10.2506 12.2401C9.73172 12.4254 9.17877 12.4428 8.66188 12.29C8.14498 12.1372 7.68734 11.8211 7.3468 11.3818C7.00634 10.9424 6.79838 10.3996 6.74923 9.82207C6.70008 9.24454 6.81197 8.65809 7.07079 8.13716C7.32953 7.61628 7.72356 7.18425 8.20297 6.8958C8.52015 6.70361 8.86739 6.57933 9.22461 6.53005C9.58179 6.48088 9.94208 6.50762 10.2847 6.60893C10.6273 6.71012 10.9455 6.88392 11.2212 7.12026C11.4969 7.35655 11.7245 7.65078 11.891 7.98595Z" fill="#D0D0D0"/>
    </svg>
    