<svg width="32" height="32" viewBox="0 0 32 32" fill="none" xmlns="http://www.w3.org/2000/svg">
    <path d="M17.3332 26.5838C20.0229 26.2416 22.4814 24.888 24.2089 22.7982C25.9365 20.7084 26.8035 18.0392 26.6337 15.3331C26.4639 12.627 25.2701 10.0872 23.2948 8.22968C21.3196 6.3722 18.7112 5.33653 15.9998 5.33317C13.2851 5.33115 10.6718 6.36429 8.69229 8.22207C6.71281 10.0799 5.51616 12.6225 5.34616 15.3319C5.17617 18.0413 6.04562 20.7135 7.77736 22.8042C9.50911 24.8948 11.9728 26.2465 14.6665 26.5838V18.6665H11.9998V15.9998H14.6665V13.7945C14.6665 12.0118 14.8532 11.3652 15.1998 10.7132C15.5413 10.0681 16.0691 9.54075 16.7145 9.19984C17.2238 8.9265 17.8572 8.7625 18.9638 8.69184C19.4025 8.66384 19.9705 8.6985 20.6678 8.7985V11.3318H19.9998C18.7772 11.3318 18.2718 11.3892 17.9705 11.5505C17.7907 11.643 17.6443 11.7894 17.5518 11.9692C17.3918 12.2705 17.3332 12.5692 17.3332 13.7932V15.9998H20.6665L19.9998 18.6665H17.3332V26.5838ZM15.9998 29.3332C8.63584 29.3332 2.6665 23.3638 2.6665 15.9998C2.6665 8.63584 8.63584 2.6665 15.9998 2.6665C23.3638 2.6665 29.3332 8.63584 29.3332 15.9998C29.3332 23.3638 23.3638 29.3332 15.9998 29.3332Z" fill="#1A3237"/>
    </svg>
    