<svg width="32" height="32" viewBox="0 0 32 32" fill="none" xmlns="http://www.w3.org/2000/svg">
    <path d="M5.3335 29.3335C5.3335 26.5045 6.4573 23.7914 8.45769 21.791C10.4581 19.7906 13.1712 18.6668 16.0002 18.6668C18.8291 18.6668 21.5422 19.7906 23.5426 21.791C25.543 23.7914 26.6668 26.5045 26.6668 29.3335H24.0002C24.0002 27.2118 23.1573 25.1769 21.657 23.6766C20.1567 22.1763 18.1219 21.3335 16.0002 21.3335C13.8784 21.3335 11.8436 22.1763 10.3433 23.6766C8.84302 25.1769 8.00016 27.2118 8.00016 29.3335H5.3335ZM16.0002 17.3335C11.5802 17.3335 8.00016 13.7535 8.00016 9.3335C8.00016 4.9135 11.5802 1.3335 16.0002 1.3335C20.4202 1.3335 24.0002 4.9135 24.0002 9.3335C24.0002 13.7535 20.4202 17.3335 16.0002 17.3335ZM16.0002 14.6668C18.9468 14.6668 21.3335 12.2802 21.3335 9.3335C21.3335 6.38683 18.9468 4.00016 16.0002 4.00016C13.0535 4.00016 10.6668 6.38683 10.6668 9.3335C10.6668 12.2802 13.0535 14.6668 16.0002 14.6668Z" fill="white"/>
    </svg>
    