<svg width="43" height="43" viewBox="0 0 43 43" fill="none" xmlns="http://www.w3.org/2000/svg">
    <path fill-rule="evenodd" clip-rule="evenodd" d="M38.532 16.254H42.508C41.614 12.532 39.7 9.206 36.727 6.294C32.533 2.138 27.463 0.053 21.537 0H21.481C15.556 0.054 10.486 2.14 6.273 6.293C3.318 9.206 1.404 12.532 0.511 16.254H4.468V23.806H0C0.456 28.463 2.352 32.526 5.653 36.032V33.102H10.595V30.189H16.74C13.075 29.182 9.374 27.042 5.671 23.788H5.654V16.218L6.346 16.776L13.257 25.064C13.767 24.615 14.297 24.237 14.862 23.878L10.595 16.794V5.574L21.518 23.986L32.424 5.574V16.794L28.156 23.878C28.704 24.238 29.232 24.615 29.761 25.064L36.672 16.776L37.347 16.218V23.788C33.645 27.042 29.961 29.182 26.26 30.189H32.424V33.102H37.347V36.032C40.666 32.526 42.544 28.463 43 23.806H38.532V16.254ZM21.572 43H21.627C27.287 42.964 32.161 41.033 36.231 37.227H6.968C11.038 41.033 15.913 42.964 21.572 43Z" fill="#090F1D"/>
    </svg>
    