<svg width="854" height="868" viewBox="0 0 854 868" fill="none" xmlns="http://www.w3.org/2000/svg">
    <path opacity="0.15" d="M464.887 7.49837C478.515 -1.84225 496.484 -1.84227 510.113 7.49835L957.399 314.052C972.242 324.225 978.465 343.059 972.605 360.073L802.733 853.254C797.174 869.394 781.984 880.227 764.914 880.227H210.086C193.016 880.227 177.826 869.394 172.267 853.254L2.39507 360.073C-3.46539 343.059 2.75743 324.225 17.6012 314.052L464.887 7.49837Z" fill="#FF9200"/>
    <g filter="url(#filter0_f)">
    <ellipse cx="449.302" cy="805.697" rx="257.071" ry="14.1248" fill="#9E8C6C"/>
    </g>
    <g filter="url(#filter1_f)">
    <path d="M589.876 799.428C589.876 803.677 579.129 803.275 460.913 812.893C322.179 822.51 322.179 807.524 322.179 803.275C322.179 799.025 329.018 784.039 496.085 784.039C611.555 784.039 589.876 795.178 589.876 799.428Z" fill="#9E8C6C" fill-opacity="0.4"/>
    </g>
    <g filter="url(#filter2_f)">
    <path d="M454.01 786.641C453.394 789.831 424.44 810.885 363.853 806.664C292.993 800.459 295.168 789.207 295.784 786.016C296.401 782.826 297.246 782.874 382.445 782.874C439.885 782.874 454.627 783.45 454.01 786.641Z" fill="#563313"/>
    </g>
    <g filter="url(#filter3_f)">
    <path d="M646.107 784.981C645.49 788.171 621.946 806.15 561.358 801.93C511.451 812.288 495.413 785.196 496.03 782.006C496.647 778.815 498.855 776.579 579.837 782.006C637.149 785.846 646.724 781.79 646.107 784.981Z" fill="#563313"/>
    </g>
    <path d="M199.432 408.32C201.692 375.928 244.946 355.274 266.29 348.996C285.123 359.982 325.99 385.156 338.797 397.962C354.805 413.97 244.632 603.242 228.624 601.359C212.616 599.476 213.557 614.542 174.008 651.266C134.458 687.991 102.442 621.134 105.267 587.234C108.092 553.335 96.7925 551.451 86.4343 534.502C76.0761 517.552 90.2009 510.019 114.684 501.544C139.167 493.069 196.607 448.811 199.432 408.32Z" fill="#C05A5D"/>
    <mask id="mask0" style="mask-type:alpha" maskUnits="userSpaceOnUse" x="82" y="348" width="259" height="314">
    <path d="M199.432 408.32C201.692 375.928 244.946 355.274 266.29 348.996C285.123 359.982 325.99 385.156 338.797 397.962C354.805 413.97 244.632 603.242 228.624 601.359C212.616 599.476 213.557 614.542 174.008 651.266C134.458 687.991 102.442 621.134 105.267 587.234C108.092 553.335 96.7925 551.451 86.4343 534.502C76.0761 517.552 90.2009 510.019 114.684 501.544C139.167 493.069 196.607 448.811 199.432 408.32Z" fill="#9E2F32"/>
    </mask>
    <g mask="url(#mask0)">
    <g opacity="0.4" filter="url(#filter4_f)">
    <path d="M164.442 673.08C135.001 649.069 147.489 548.905 157.413 501.824L255.623 604.491C237.496 637.359 193.883 697.091 164.442 673.08Z" fill="#4E0C06"/>
    </g>
    <g opacity="0.4" filter="url(#filter5_f)">
    <path d="M217.61 390.779C224.834 380.194 253.293 364.315 269.401 366.296L243.451 413.414C231.883 408.267 210.387 401.364 217.61 390.779Z" fill="#4E0C06"/>
    </g>
    <g filter="url(#filter6_f)">
    <path d="M198.833 637.374C174.601 624.539 169.286 551.876 169.657 517.149L253.681 575.94C245.495 601.766 223.065 650.21 198.833 637.374Z" fill="#4E0C06"/>
    </g>
    <g filter="url(#filter7_f)">
    <path d="M150.558 511.901C133.985 513.408 98.4534 504.368 82.7592 499.66C75.5399 499.66 63.1171 528.81 107.242 626.783C162.8 750.139 121.367 607.95 121.367 551.451C121.367 522.123 171.274 510.018 150.558 511.901Z" fill="#9E2E31"/>
    </g>
    </g>
    <g filter="url(#filter8_iii)">
    <path d="M170.223 436.455C185.29 413.855 238.65 383.095 263.447 370.539C293.58 353.909 290.755 417.622 283.221 458.113C279.317 479.101 270.038 540.978 278.513 565.461C286.988 589.944 286.046 598.419 290.755 631.377C295.463 664.335 317.121 669.043 278.513 669.984C239.905 670.926 241.789 612.544 227.664 610.66C213.539 608.777 188.115 574.878 170.223 540.978C152.332 507.079 151.39 464.704 170.223 436.455Z" fill="#E2C693"/>
    </g>
    <mask id="mask1" style="mask-type:alpha" maskUnits="userSpaceOnUse" x="156" y="367" width="146" height="303">
    <path d="M170.223 436.455C185.29 413.855 238.65 383.095 263.447 370.539C293.58 353.909 290.755 417.622 283.221 458.113C279.317 479.101 270.038 540.978 278.513 565.461C286.988 589.944 286.046 598.419 290.755 631.377C295.463 664.335 317.121 669.043 278.513 669.984C239.905 670.926 241.789 612.544 227.664 610.66C213.539 608.777 188.115 574.878 170.223 540.978C152.332 507.079 151.39 464.704 170.223 436.455Z" fill="#E2C693"/>
    </mask>
    <g mask="url(#mask1)">
    <g filter="url(#filter9_f)">
    <path d="M246.346 430.046C264.426 411.967 283.385 416.236 290.604 420.63C289.348 457.668 329.023 653.029 320.737 667.343C310.379 685.234 261.413 687.287 261.413 676.759C261.413 543.986 211.505 564.703 186.081 491.254C179.262 471.556 199.264 453.588 211.505 445.113C223.747 436.638 223.747 452.646 246.346 430.046Z" fill="#976C34"/>
    </g>
    <g filter="url(#filter10_f)">
    <path d="M206.758 476.552C255.206 473.062 272.344 441.811 274.858 426.621C298.587 493.131 267.388 529.489 263.937 537.924C260.486 546.358 231.27 553.921 229.217 525.416C227.574 502.613 213.56 483.339 206.758 476.552Z" fill="#72512B"/>
    </g>
    <g filter="url(#filter11_f)">
    <path d="M232.11 484.608C261.728 484.608 273.52 466.259 275.714 457.084C287.232 498.788 266.664 519.64 264.196 524.644C261.728 529.649 243.628 532.985 243.628 515.469C243.628 501.457 235.949 489.057 232.11 484.608Z" fill="#442E15"/>
    </g>
    <g filter="url(#filter12_f)">
    <path d="M276.558 598.628C270.503 579.83 274.035 553.695 276.558 542.977C291.264 542.977 304.312 634.492 308.997 680.249C303.591 680.661 292.129 680.743 289.534 677.775C286.29 674.065 292.778 660.462 292.778 650.568C292.778 640.675 284.127 622.125 276.558 598.628Z" fill="#492308"/>
    </g>
    </g>
    <g filter="url(#filter13_ii)">
    <path d="M783.589 421.511C768.522 383.845 715.79 375.057 691.307 375.371C689.11 394.204 686.034 438.838 691.307 466.711C697.899 501.552 680.007 593.834 678.124 603.25C676.617 610.783 657.408 655.983 647.991 677.641C655.524 677.641 673.416 671.991 684.715 649.391C698.84 621.141 721.44 594.775 743.098 560.876L743.577 560.126C765.306 526.12 802.284 468.249 783.589 421.511Z" fill="#EEC57D"/>
    </g>
    <mask id="mask2" style="mask-type:alpha" maskUnits="userSpaceOnUse" x="647" y="375" width="142" height="303">
    <path d="M783.589 421.511C768.522 383.845 715.79 375.057 691.307 375.371C689.11 394.204 686.034 438.838 691.307 466.711C697.899 501.552 680.007 593.834 678.124 603.25C676.617 610.783 657.408 655.983 647.991 677.641C655.524 677.641 673.416 671.991 684.715 649.391C698.84 621.141 721.44 594.775 743.098 560.876L743.577 560.126C765.306 526.12 802.284 468.249 783.589 421.511Z" fill="#E2C693"/>
    </mask>
    <g mask="url(#mask2)">
    <g filter="url(#filter14_f)">
    <path d="M740.787 444.128C731.747 435.842 704.376 447.581 691.821 454.486C688.054 465.472 678.261 497.991 669.221 540.177C657.922 592.909 653.213 607.034 691.821 559.951C730.429 512.869 752.087 454.486 740.787 444.128Z" fill="url(#paint0_linear)"/>
    </g>
    <g filter="url(#filter15_f)">
    <path d="M685.078 589.413C695.821 547.082 679.775 544.28 670.409 548.17C659.92 585.978 637.856 664.997 633.515 678.615C628.089 695.638 656.336 695.266 656.2 684.909C656.063 674.551 671.648 642.327 685.078 589.413Z" fill="#512003"/>
    </g>
    <g filter="url(#filter16_f)">
    <path d="M719.803 454.182C714.857 449.52 699.88 456.125 693.01 460.01C690.949 466.191 685.59 484.487 680.644 508.222C674.461 537.89 671.884 545.837 693.01 519.347C714.135 492.857 725.986 460.01 719.803 454.182Z" fill="url(#paint1_linear)"/>
    </g>
    </g>
    <g filter="url(#filter17_ii)">
    <path d="M281.186 276.759C277.42 233.067 319.794 187.303 339.569 167.528C391.832 115.264 538.398 103.607 605.114 161.878C679.505 226.852 693.629 281.467 697.396 403.882C701.163 526.297 691.746 601.629 665.38 642.12C639.014 682.611 641.839 738.168 642.78 760.768C643.722 783.368 637.13 794.667 610.764 794.667C584.398 794.667 494.941 813.5 501.533 764.534C508.124 715.569 462.925 729.693 452.567 733.46C442.209 737.227 452.567 765.476 445.033 786.193C437.5 806.909 355.676 802.544 319.794 794.667C281.186 786.193 309.938 771.798 301.902 679.786C300.419 662.797 281.186 616.695 281.186 598.804C281.186 580.913 257.992 539.21 265.178 482.981C272.885 422.673 285.894 331.375 281.186 276.759Z" fill="#EDC377"/>
    </g>
    <mask id="mask3" style="mask-type:alpha" maskUnits="userSpaceOnUse" x="263" y="123" width="436" height="679">
    <path d="M281.186 276.759C277.42 233.067 319.794 187.303 339.569 167.528C391.832 115.264 538.398 103.607 605.114 161.878C679.505 226.852 693.629 281.467 697.396 403.882C701.163 526.297 691.746 601.629 665.38 642.12C639.014 682.611 641.839 738.168 642.78 760.768C643.722 783.367 637.13 794.667 610.764 794.667C584.398 794.667 494.941 813.5 501.533 764.534C508.124 715.569 462.925 729.693 452.567 733.46C442.209 737.227 452.567 765.476 445.033 786.192C437.5 806.909 355.572 803.003 319.794 794.667C283.417 786.192 313.495 727.54 301.902 679.786C297.879 663.213 281.186 616.695 281.186 598.804C281.186 580.913 257.992 539.21 265.178 482.981C272.885 422.673 285.894 331.375 281.186 276.759Z" fill="#E2C693"/>
    </mask>
    <g mask="url(#mask3)">
    <g filter="url(#filter18_f)">
    <path d="M458.327 738.541C370.728 744.288 272.052 665.895 233.665 625.979C245.936 115.86 796.266 561.316 719.805 639.151C643.344 716.986 567.827 731.356 458.327 738.541Z" fill="url(#paint2_linear)"/>
    </g>
    <g filter="url(#filter19_f)">
    <path d="M339.714 794.527C355.534 790.007 367.33 731.973 400.921 735.203C449.887 739.911 457.225 732.605 461.933 757.088C466.642 781.571 444.042 801.346 434.626 809.821C425.209 818.296 319.939 800.177 339.714 794.527Z" fill="url(#paint3_linear)"/>
    </g>
    <g filter="url(#filter20_f)">
    <path d="M438.09 741.695C432.816 756.761 435.892 785.011 438.09 797.252L544.41 813.23C552.884 778.703 553.449 705.505 533.11 715.298C507.685 727.54 473.872 729.454 468.223 727.57C462.573 725.687 444.681 722.862 438.09 741.695Z" fill="#6D3B0A"/>
    </g>
    <g filter="url(#filter21_f)">
    <path d="M308.056 799.106C296.002 796.092 298.011 785.295 300.522 780.273C323.122 798.164 357.963 791.572 394.688 793.456C431.412 795.339 447.42 782.156 447.42 784.039C447.42 785.922 449.303 791.572 437.062 801.93C424.82 812.289 323.122 802.872 308.056 799.106Z" fill="#A07241"/>
    </g>
    <g opacity="0.4" filter="url(#filter22_f)">
    <path d="M358.172 668.636C350.639 622.181 359.302 540.76 454.221 586.712C549.139 632.665 429.738 660.475 358.172 668.636Z" fill="url(#paint4_linear)"/>
    </g>
    </g>
    <path d="M272.272 268.014C273.779 266.508 278.808 264.764 281.319 264.136C281.319 265.078 280.747 273.664 281.689 280.256C282.631 286.847 282.631 293.439 281.689 300.031C280.747 306.622 261.914 300.031 261.914 286.847C261.914 273.664 270.389 269.898 272.272 268.014Z" fill="url(#paint5_linear)"/>
    <path d="M687.54 298.147L685.657 287.789C686.599 287.789 689.613 289.925 692.249 293.439C695.369 297.599 689.424 297.519 687.54 298.147Z" fill="url(#paint6_linear)"/>
    <g filter="url(#filter23_f)">
    <path d="M284.514 313.213C267.941 308.693 272.586 293.125 276.981 285.906C289.222 285.906 335.363 302.855 359.846 302.855C384.329 302.855 419.17 297.205 451.186 305.68C483.202 314.155 532.168 302.855 548.176 302.855C564.184 302.855 616.917 305.68 630.1 302.855C651.905 298.183 685.248 297.293 686.666 292.409C686.464 291.501 686.414 291.12 686.599 291.555C686.725 291.853 686.745 292.138 686.666 292.409C687.485 296.081 690.804 308.376 691.307 310.388C674.357 313.841 638.763 320.747 631.983 320.747C623.508 320.747 536.876 326.397 495.444 322.63C454.011 318.863 398.454 318.863 370.204 326.397C341.955 333.93 305.23 318.863 284.514 313.213Z" fill="#735634"/>
    </g>
    <g opacity="0.6" filter="url(#filter24_f)">
    <path d="M331.596 430.921C270.577 421.127 252.497 386.349 252.497 372.538C286.397 326.397 644.437 331.853 693.19 365.005C716.731 381.013 695.073 404.554 675.299 413.029C579.465 454.101 407.87 443.162 331.596 430.921Z" fill="#523F34"/>
    </g>
    <g opacity="0.6" filter="url(#filter25_f)">
    <path d="M351.37 431.862C275.097 419.621 254.38 388.781 254.38 374.971C288.28 328.83 646.32 334.285 695.073 367.437C718.614 383.446 700.723 409.6 680.007 415.854C580.192 445.987 427.644 444.104 351.37 431.862Z" fill="#453329"/>
    </g>
    <g filter="url(#filter26_ii)">
    <path d="M248.617 364.411C239.134 287.196 270.866 260.911 281.359 264.156C249.457 283.583 275.097 296.264 318.413 306.622C361.729 316.98 412.464 298.495 427.531 298.495C442.597 298.495 491.563 304.145 516.046 304.145C540.529 304.145 572.545 287.196 597.969 298.495C623.394 309.795 665.768 299.437 683.66 298.495C697.973 297.742 690.365 291.556 685.657 287.789C719.556 284.023 710.026 381.361 709.084 387.952C708.142 394.544 695.901 410.552 677.068 418.085C658.235 425.618 261.8 471.759 248.617 364.411Z" fill="#80B4F0"/>
    </g>
    <mask id="mask4" style="mask-type:alpha" maskUnits="userSpaceOnUse" x="246" y="264" width="466" height="171">
    <path d="M248.617 364.411C239.134 287.196 270.275 260.83 282.516 264.596C241.084 282.488 274.983 298.496 318.299 308.854C361.615 319.212 412.464 298.496 427.531 298.496C442.597 298.496 491.563 304.146 516.046 304.146C540.529 304.146 572.545 287.196 597.969 298.496C623.394 309.796 665.768 299.437 683.66 298.496C697.973 297.742 690.365 291.556 685.657 287.789C719.556 284.023 710.026 381.361 709.084 387.953C708.143 394.544 695.901 410.552 677.068 418.085C658.235 425.619 261.8 471.76 248.617 364.411Z" fill="#80B4F0"/>
    </mask>
    <g mask="url(#mask4)">
    <g filter="url(#filter27_f)">
    <path d="M207.32 278.373C208.073 274.606 283.279 290.301 299.601 273.665C254.402 324.137 252.519 374.421 281.71 429.979C225.211 399.846 206.566 282.14 207.32 278.373Z" fill="#98C6F6"/>
    </g>
    <g filter="url(#filter28_f)">
    <path d="M677.182 329.707C664.627 304.822 625.391 302.399 612.208 305.224C623.821 299.261 654.582 288.651 684.715 293.925C722.381 300.516 704.045 305.707 701.665 329.707C696.015 386.663 679.065 424.329 664.94 424.329C650.815 424.329 704.49 383.838 677.182 329.707Z" fill="#598EC0"/>
    </g>
    <g filter="url(#filter29_f)">
    <path d="M294.872 294.8C285.832 336.232 283.572 375.363 283.572 388.546C349.487 419.621 442.711 427.154 442.711 419.621C442.711 410.204 442.711 396.498 450.244 370.132C457.777 343.766 439.886 348.055 426.703 320.748C413.52 293.44 393.745 330.164 353.254 330.164C312.763 330.164 306.171 243.009 294.872 294.8Z" fill="#598EC0"/>
    </g>
    </g>
    <g filter="url(#filter30_f)">
    <path d="M496.565 396.08C520.672 392.313 541.765 354.333 549.298 335.814L583.197 381.955C584.453 396.708 606.705 399.055 592.434 407.38C581.134 413.971 552.885 406.438 535.935 392.313C526.518 429.979 482.261 421.504 466.253 418.679C450.245 415.854 466.433 400.788 496.565 396.08Z" fill="#274F76"/>
    </g>
    <g filter="url(#filter31_diii)">
    <path d="M432.058 353.086C437.331 332.747 456.227 322.639 465.016 320.128C497.974 303.179 552.59 345.553 532.815 389.811C513.04 434.068 481.966 423.71 456.541 416.177C431.117 408.644 425.467 378.511 432.058 353.086Z" fill="white"/>
    <path d="M551.648 385.102C519.255 342.163 551.334 316.99 571.423 309.77C632.63 305.062 633.572 353.086 633.572 368.153C633.572 383.219 592.139 438.776 551.648 385.102Z" fill="white"/>
    </g>
    <g filter="url(#filter32_i)">
    <circle cx="564.44" cy="349.254" r="10.9739" transform="rotate(75 564.44 349.254)" fill="#292929"/>
    </g>
    <g filter="url(#filter33_f)">
    <ellipse cx="571.315" cy="353.575" rx="4.80109" ry="1.35565" transform="rotate(35.8913 571.315 353.575)" fill="white"/>
    </g>
    <g filter="url(#filter34_f)">
    <ellipse cx="571.729" cy="354.635" rx="3.27902" ry="0.882629" transform="rotate(35.8913 571.729 354.635)" fill="white"/>
    </g>
    <g filter="url(#filter35_i)">
    <circle cx="455.44" cy="352.437" r="10.9739" transform="rotate(75 455.44 352.437)" fill="#292929"/>
    </g>
    <g filter="url(#filter36_f)">
    <ellipse cx="462.315" cy="356.758" rx="4.80109" ry="1.35565" transform="rotate(35.8913 462.315 356.758)" fill="white"/>
    </g>
    <g filter="url(#filter37_f)">
    <ellipse cx="462.676" cy="357.714" rx="3.33485" ry="0.713571" transform="rotate(35.8913 462.676 357.714)" fill="white"/>
    </g>
    <g filter="url(#filter38_dd)">
    <path d="M448.361 488.731C446.478 486.276 516.725 437.881 537.818 434.115C564.184 429.406 450.245 491.185 448.361 488.731Z" fill="#341206"/>
    </g>
    <g opacity="0.8" filter="url(#filter39_f)">
    <path d="M565.002 477.818C521.562 471.802 458.354 485.821 432.18 493.583C406.071 500.091 429.03 518.318 407.87 529.793C383.561 542.976 413.066 535.026 418.336 560.757C423.606 586.488 559.947 575.62 560.336 568.096C560.725 560.573 605.264 556.275 598.761 536.138C592.259 516.001 635.451 501.261 631.981 495.424C628.511 489.587 619.302 485.34 565.002 477.818Z" fill="url(#paint7_linear)"/>
    </g>
    <g filter="url(#filter40_f)">
    <path d="M453.07 496.835C449.303 485.535 464.056 479.572 471.903 478.002C488.225 467.958 536.877 444.668 600.909 431.861C680.949 415.853 654.583 453.519 655.525 465.761C656.466 478.002 655.525 518.493 610.326 491.185C565.126 463.877 457.778 510.96 453.07 496.835Z" fill="#FFDA97"/>
    </g>
    <g opacity="0.7" filter="url(#filter41_f)">
    <path d="M513.041 459.268C502.977 466.703 447.419 483.701 447.419 500.602C476.611 493.069 549.229 519.41 548.165 483.701C547.101 447.992 532.862 444.627 513.041 459.268Z" fill="#CDA668"/>
    </g>
    <g filter="url(#filter42_f)">
    <path d="M446.719 491.316C448.695 499.363 630.443 419.544 537.026 444.127C525.933 447.046 499.716 465.734 476.852 478.133C462.838 485.733 445.969 488.258 446.719 491.316Z" fill="url(#paint8_linear)"/>
    </g>
    <defs>
    <filter id="filter0_f" x="143.266" y="742.606" width="612.073" height="126.181" filterUnits="userSpaceOnUse" color-interpolation-filters="sRGB">
    <feFlood flood-opacity="0" result="BackgroundImageFix"/>
    <feBlend mode="normal" in="SourceGraphic" in2="BackgroundImageFix" result="shape"/>
    <feGaussianBlur stdDeviation="24.4829" result="effect1_foregroundBlur"/>
    </filter>
    <filter id="filter1_f" x="307.113" y="768.973" width="299.445" height="62.149" filterUnits="userSpaceOnUse" color-interpolation-filters="sRGB">
    <feFlood flood-opacity="0" result="BackgroundImageFix"/>
    <feBlend mode="normal" in="SourceGraphic" in2="BackgroundImageFix" result="shape"/>
    <feGaussianBlur stdDeviation="7.53321" result="effect1_foregroundBlur"/>
    </filter>
    <filter id="filter2_f" x="284.323" y="771.574" width="181.005" height="46.9467" filterUnits="userSpaceOnUse" color-interpolation-filters="sRGB">
    <feFlood flood-opacity="0" result="BackgroundImageFix"/>
    <feBlend mode="normal" in="SourceGraphic" in2="BackgroundImageFix" result="shape"/>
    <feGaussianBlur stdDeviation="5.64991" result="effect1_foregroundBlur"/>
    </filter>
    <filter id="filter3_f" x="484.713" y="767.422" width="172.721" height="48.1552" filterUnits="userSpaceOnUse" color-interpolation-filters="sRGB">
    <feFlood flood-opacity="0" result="BackgroundImageFix"/>
    <feBlend mode="normal" in="SourceGraphic" in2="BackgroundImageFix" result="shape"/>
    <feGaussianBlur stdDeviation="5.64991" result="effect1_foregroundBlur"/>
    </filter>
    <filter id="filter4_f" x="117.847" y="473.574" width="166.026" height="233.302" filterUnits="userSpaceOnUse" color-interpolation-filters="sRGB">
    <feFlood flood-opacity="0" result="BackgroundImageFix"/>
    <feBlend mode="normal" in="SourceGraphic" in2="BackgroundImageFix" result="shape"/>
    <feGaussianBlur stdDeviation="14.1248" result="effect1_foregroundBlur"/>
    </filter>
    <filter id="filter5_f" x="204.859" y="354.827" width="75.8417" height="69.887" filterUnits="userSpaceOnUse" color-interpolation-filters="sRGB">
    <feFlood flood-opacity="0" result="BackgroundImageFix"/>
    <feBlend mode="normal" in="SourceGraphic" in2="BackgroundImageFix" result="shape"/>
    <feGaussianBlur stdDeviation="5.64991" result="effect1_foregroundBlur"/>
    </filter>
    <filter id="filter6_f" x="141.39" y="488.899" width="140.54" height="178.85" filterUnits="userSpaceOnUse" color-interpolation-filters="sRGB">
    <feFlood flood-opacity="0" result="BackgroundImageFix"/>
    <feBlend mode="normal" in="SourceGraphic" in2="BackgroundImageFix" result="shape"/>
    <feGaussianBlur stdDeviation="14.1248" result="effect1_foregroundBlur"/>
    </filter>
    <filter id="filter7_f" x="54.7506" y="478.943" width="121.559" height="217.45" filterUnits="userSpaceOnUse" color-interpolation-filters="sRGB">
    <feFlood flood-opacity="0" result="BackgroundImageFix"/>
    <feBlend mode="normal" in="SourceGraphic" in2="BackgroundImageFix" result="shape"/>
    <feGaussianBlur stdDeviation="10.3582" result="effect1_foregroundBlur"/>
    </filter>
    <filter id="filter8_iii" x="154.566" y="350.88" width="218.058" height="339.832" filterUnits="userSpaceOnUse" color-interpolation-filters="sRGB">
    <feFlood flood-opacity="0" result="BackgroundImageFix"/>
    <feBlend mode="normal" in="SourceGraphic" in2="BackgroundImageFix" result="shape"/>
    <feColorMatrix in="SourceAlpha" type="matrix" values="0 0 0 0 0 0 0 0 0 0 0 0 0 0 0 0 0 0 127 0" result="hardAlpha"/>
    <feOffset dx="71.5655" dy="-16.9497"/>
    <feGaussianBlur stdDeviation="72.5071"/>
    <feComposite in2="hardAlpha" operator="arithmetic" k2="-1" k3="1"/>
    <feColorMatrix type="matrix" values="0 0 0 0 0.595833 0 0 0 0 0.414902 0 0 0 0 0.228403 0 0 0 1 0"/>
    <feBlend mode="normal" in2="shape" result="effect1_innerShadow"/>
    <feColorMatrix in="SourceAlpha" type="matrix" values="0 0 0 0 0 0 0 0 0 0 0 0 0 0 0 0 0 0 127 0" result="hardAlpha"/>
    <feOffset dx="-1.8833" dy="3.7666"/>
    <feGaussianBlur stdDeviation="7.53321"/>
    <feComposite in2="hardAlpha" operator="arithmetic" k2="-1" k3="1"/>
    <feColorMatrix type="matrix" values="0 0 0 0 0.483333 0 0 0 0 0.307755 0 0 0 0 0.110764 0 0 0 1 0"/>
    <feBlend mode="normal" in2="effect1_innerShadow" result="effect2_innerShadow"/>
    <feColorMatrix in="SourceAlpha" type="matrix" values="0 0 0 0 0 0 0 0 0 0 0 0 0 0 0 0 0 0 127 0" result="hardAlpha"/>
    <feOffset dx="13.1831" dy="20.7163"/>
    <feGaussianBlur stdDeviation="10.3582"/>
    <feComposite in2="hardAlpha" operator="arithmetic" k2="-1" k3="1"/>
    <feColorMatrix type="matrix" values="0 0 0 0 0.862745 0 0 0 0 0.74902 0 0 0 0 0.54902 0 0 0 1 0"/>
    <feBlend mode="normal" in2="effect2_innerShadow" result="effect3_innerShadow"/>
    </filter>
    <filter id="filter9_f" x="169.633" y="401.729" width="167.31" height="296.483" filterUnits="userSpaceOnUse" color-interpolation-filters="sRGB">
    <feFlood flood-opacity="0" result="BackgroundImageFix"/>
    <feBlend mode="normal" in="SourceGraphic" in2="BackgroundImageFix" result="shape"/>
    <feGaussianBlur stdDeviation="7.53321" result="effect1_foregroundBlur"/>
    </filter>
    <filter id="filter10_f" x="195.459" y="415.322" width="99.5344" height="141.564" filterUnits="userSpaceOnUse" color-interpolation-filters="sRGB">
    <feFlood flood-opacity="0" result="BackgroundImageFix"/>
    <feBlend mode="normal" in="SourceGraphic" in2="BackgroundImageFix" result="shape"/>
    <feGaussianBlur stdDeviation="5.64991" result="effect1_foregroundBlur"/>
    </filter>
    <filter id="filter11_f" x="217.044" y="442.017" width="77.2154" height="101.698" filterUnits="userSpaceOnUse" color-interpolation-filters="sRGB">
    <feFlood flood-opacity="0" result="BackgroundImageFix"/>
    <feBlend mode="normal" in="SourceGraphic" in2="BackgroundImageFix" result="shape"/>
    <feGaussianBlur stdDeviation="7.53321" result="effect1_foregroundBlur"/>
    </filter>
    <filter id="filter12_f" x="254.382" y="524.144" width="73.4488" height="175.147" filterUnits="userSpaceOnUse" color-interpolation-filters="sRGB">
    <feFlood flood-opacity="0" result="BackgroundImageFix"/>
    <feBlend mode="normal" in="SourceGraphic" in2="BackgroundImageFix" result="shape"/>
    <feGaussianBlur stdDeviation="9.41651" result="effect1_foregroundBlur"/>
    </filter>
    <filter id="filter13_ii" x="647.991" y="358.413" width="212.277" height="339.944" filterUnits="userSpaceOnUse" color-interpolation-filters="sRGB">
    <feFlood flood-opacity="0" result="BackgroundImageFix"/>
    <feBlend mode="normal" in="SourceGraphic" in2="BackgroundImageFix" result="shape"/>
    <feColorMatrix in="SourceAlpha" type="matrix" values="0 0 0 0 0 0 0 0 0 0 0 0 0 0 0 0 0 0 127 0" result="hardAlpha"/>
    <feOffset dx="71.5655" dy="-16.9497"/>
    <feGaussianBlur stdDeviation="72.5071"/>
    <feComposite in2="hardAlpha" operator="arithmetic" k2="-1" k3="1"/>
    <feColorMatrix type="matrix" values="0 0 0 0 0.775 0 0 0 0 0.580256 0 0 0 0 0.2325 0 0 0 1 0"/>
    <feBlend mode="normal" in2="shape" result="effect1_innerShadow"/>
    <feColorMatrix in="SourceAlpha" type="matrix" values="0 0 0 0 0 0 0 0 0 0 0 0 0 0 0 0 0 0 127 0" result="hardAlpha"/>
    <feOffset dx="13.1831" dy="20.7163"/>
    <feGaussianBlur stdDeviation="10.3582"/>
    <feComposite in2="hardAlpha" operator="arithmetic" k2="-1" k3="1"/>
    <feColorMatrix type="matrix" values="0 0 0 0 0.991667 0 0 0 0 0.803434 0 0 0 0 0.483438 0 0 0 1 0"/>
    <feBlend mode="normal" in2="effect1_innerShadow" result="effect2_innerShadow"/>
    </filter>
    <filter id="filter14_f" x="646.109" y="426.212" width="112.736" height="177.415" filterUnits="userSpaceOnUse" color-interpolation-filters="sRGB">
    <feFlood flood-opacity="0" result="BackgroundImageFix"/>
    <feBlend mode="normal" in="SourceGraphic" in2="BackgroundImageFix" result="shape"/>
    <feGaussianBlur stdDeviation="7.53321" result="effect1_foregroundBlur"/>
    </filter>
    <filter id="filter15_f" x="619.639" y="533.718" width="82.1914" height="171.615" filterUnits="userSpaceOnUse" color-interpolation-filters="sRGB">
    <feFlood flood-opacity="0" result="BackgroundImageFix"/>
    <feBlend mode="normal" in="SourceGraphic" in2="BackgroundImageFix" result="shape"/>
    <feGaussianBlur stdDeviation="6.59156" result="effect1_foregroundBlur"/>
    </filter>
    <filter id="filter16_f" x="666.824" y="443.162" width="64.0323" height="101.698" filterUnits="userSpaceOnUse" color-interpolation-filters="sRGB">
    <feFlood flood-opacity="0" result="BackgroundImageFix"/>
    <feBlend mode="normal" in="SourceGraphic" in2="BackgroundImageFix" result="shape"/>
    <feGaussianBlur stdDeviation="4.70826" result="effect1_foregroundBlur"/>
    </filter>
    <filter id="filter17_ii" x="261.914" y="106.05" width="507.844" height="698.925" filterUnits="userSpaceOnUse" color-interpolation-filters="sRGB">
    <feFlood flood-opacity="0" result="BackgroundImageFix"/>
    <feBlend mode="normal" in="SourceGraphic" in2="BackgroundImageFix" result="shape"/>
    <feColorMatrix in="SourceAlpha" type="matrix" values="0 0 0 0 0 0 0 0 0 0 0 0 0 0 0 0 0 0 127 0" result="hardAlpha"/>
    <feOffset dx="71.5655" dy="-16.9497"/>
    <feGaussianBlur stdDeviation="72.5071"/>
    <feComposite in2="hardAlpha" operator="arithmetic" k2="-1" k3="1"/>
    <feColorMatrix type="matrix" values="0 0 0 0 0.595833 0 0 0 0 0.414902 0 0 0 0 0.228403 0 0 0 1 0"/>
    <feBlend mode="normal" in2="shape" result="effect1_innerShadow"/>
    <feColorMatrix in="SourceAlpha" type="matrix" values="0 0 0 0 0 0 0 0 0 0 0 0 0 0 0 0 0 0 127 0" result="hardAlpha"/>
    <feOffset dx="-1.8833" dy="3.7666"/>
    <feGaussianBlur stdDeviation="7.53321"/>
    <feComposite in2="hardAlpha" operator="arithmetic" k2="-1" k3="1"/>
    <feColorMatrix type="matrix" values="0 0 0 0 1 0 0 0 0 0.905564 0 0 0 0 0.7375 0 0 0 1 0"/>
    <feBlend mode="normal" in2="effect1_innerShadow" result="effect2_innerShadow"/>
    </filter>
    <filter id="filter18_f" x="203.532" y="354.647" width="553.691" height="414.326" filterUnits="userSpaceOnUse" color-interpolation-filters="sRGB">
    <feFlood flood-opacity="0" result="BackgroundImageFix"/>
    <feBlend mode="normal" in="SourceGraphic" in2="BackgroundImageFix" result="shape"/>
    <feGaussianBlur stdDeviation="15.0664" result="effect1_foregroundBlur"/>
    </filter>
    <filter id="filter19_f" x="316.53" y="714.357" width="166.758" height="118.401" filterUnits="userSpaceOnUse" color-interpolation-filters="sRGB">
    <feFlood flood-opacity="0" result="BackgroundImageFix"/>
    <feBlend mode="normal" in="SourceGraphic" in2="BackgroundImageFix" result="shape"/>
    <feGaussianBlur stdDeviation="10.3582" result="effect1_foregroundBlur"/>
    </filter>
    <filter id="filter20_f" x="391.862" y="671.089" width="201.405" height="185.457" filterUnits="userSpaceOnUse" color-interpolation-filters="sRGB">
    <feFlood flood-opacity="0" result="BackgroundImageFix"/>
    <feBlend mode="normal" in="SourceGraphic" in2="BackgroundImageFix" result="shape"/>
    <feGaussianBlur stdDeviation="21.658" result="effect1_foregroundBlur"/>
    </filter>
    <filter id="filter21_f" x="287.318" y="768.973" width="171.506" height="48.9659" filterUnits="userSpaceOnUse" color-interpolation-filters="sRGB">
    <feFlood flood-opacity="0" result="BackgroundImageFix"/>
    <feBlend mode="normal" in="SourceGraphic" in2="BackgroundImageFix" result="shape"/>
    <feGaussianBlur stdDeviation="5.64991" result="effect1_foregroundBlur"/>
    </filter>
    <filter id="filter22_f" x="331.596" y="548.626" width="182.295" height="144.493" filterUnits="userSpaceOnUse" color-interpolation-filters="sRGB">
    <feFlood flood-opacity="0" result="BackgroundImageFix"/>
    <feBlend mode="normal" in="SourceGraphic" in2="BackgroundImageFix" result="shape"/>
    <feGaussianBlur stdDeviation="12.2415" result="effect1_foregroundBlur"/>
    </filter>
    <filter id="filter23_f" x="246.48" y="259.539" width="471.193" height="95.2899" filterUnits="userSpaceOnUse" color-interpolation-filters="sRGB">
    <feFlood flood-opacity="0" result="BackgroundImageFix"/>
    <feBlend mode="normal" in="SourceGraphic" in2="BackgroundImageFix" result="shape"/>
    <feGaussianBlur stdDeviation="13.1831" result="effect1_foregroundBlur"/>
    </filter>
    <filter id="filter24_f" x="235.548" y="322.082" width="484.857" height="136.922" filterUnits="userSpaceOnUse" color-interpolation-filters="sRGB">
    <feFlood flood-opacity="0" result="BackgroundImageFix"/>
    <feBlend mode="normal" in="SourceGraphic" in2="BackgroundImageFix" result="shape"/>
    <feGaussianBlur stdDeviation="8.47486" result="effect1_foregroundBlur"/>
    </filter>
    <filter id="filter25_f" x="250.614" y="337.697" width="459.387" height="106.273" filterUnits="userSpaceOnUse" color-interpolation-filters="sRGB">
    <feFlood flood-opacity="0" result="BackgroundImageFix"/>
    <feBlend mode="normal" in="SourceGraphic" in2="BackgroundImageFix" result="shape"/>
    <feGaussianBlur stdDeviation="1.8833" result="effect1_foregroundBlur"/>
    </filter>
    <filter id="filter26_ii" x="246.87" y="260.126" width="482.248" height="174.25" filterUnits="userSpaceOnUse" color-interpolation-filters="sRGB">
    <feFlood flood-opacity="0" result="BackgroundImageFix"/>
    <feBlend mode="normal" in="SourceGraphic" in2="BackgroundImageFix" result="shape"/>
    <feColorMatrix in="SourceAlpha" type="matrix" values="0 0 0 0 0 0 0 0 0 0 0 0 0 0 0 0 0 0 127 0" result="hardAlpha"/>
    <feOffset dx="18.0944" dy="-2.01048"/>
    <feGaussianBlur stdDeviation="15.0786"/>
    <feComposite in2="hardAlpha" operator="arithmetic" k2="-1" k3="1"/>
    <feColorMatrix type="matrix" values="0 0 0 0 0.231373 0 0 0 0 0.470588 0 0 0 0 0.615686 0 0 0 1 0"/>
    <feBlend mode="normal" in2="shape" result="effect1_innerShadow"/>
    <feColorMatrix in="SourceAlpha" type="matrix" values="0 0 0 0 0 0 0 0 0 0 0 0 0 0 0 0 0 0 127 0" result="hardAlpha"/>
    <feOffset dy="-3.7666"/>
    <feGaussianBlur stdDeviation="5.64991"/>
    <feComposite in2="hardAlpha" operator="arithmetic" k2="-1" k3="1"/>
    <feColorMatrix type="matrix" values="0 0 0 0 0.163854 0 0 0 0 0.386135 0 0 0 0 0.595833 0 0 0 1 0"/>
    <feBlend mode="normal" in2="effect1_innerShadow" result="effect2_innerShadow"/>
    </filter>
    <filter id="filter27_f" x="188.465" y="254.832" width="129.97" height="193.98" filterUnits="userSpaceOnUse" color-interpolation-filters="sRGB">
    <feFlood flood-opacity="0" result="BackgroundImageFix"/>
    <feBlend mode="normal" in="SourceGraphic" in2="BackgroundImageFix" result="shape"/>
    <feGaussianBlur stdDeviation="9.41651" result="effect1_foregroundBlur"/>
    </filter>
    <filter id="filter28_f" x="587.725" y="268.015" width="144.97" height="180.797" filterUnits="userSpaceOnUse" color-interpolation-filters="sRGB">
    <feFlood flood-opacity="0" result="BackgroundImageFix"/>
    <feBlend mode="normal" in="SourceGraphic" in2="BackgroundImageFix" result="shape"/>
    <feGaussianBlur stdDeviation="12.2415" result="effect1_foregroundBlur"/>
    </filter>
    <filter id="filter29_f" x="253.439" y="248.231" width="228.726" height="204.228" filterUnits="userSpaceOnUse" color-interpolation-filters="sRGB">
    <feFlood flood-opacity="0" result="BackgroundImageFix"/>
    <feBlend mode="normal" in="SourceGraphic" in2="BackgroundImageFix" result="shape"/>
    <feGaussianBlur stdDeviation="15.0664" result="effect1_foregroundBlur"/>
    </filter>
    <filter id="filter30_f" x="439.252" y="315.098" width="178.658" height="127.131" filterUnits="userSpaceOnUse" color-interpolation-filters="sRGB">
    <feFlood flood-opacity="0" result="BackgroundImageFix"/>
    <feBlend mode="normal" in="SourceGraphic" in2="BackgroundImageFix" result="shape"/>
    <feGaussianBlur stdDeviation="10.3582" result="effect1_foregroundBlur"/>
    </filter>
    <filter id="filter31_diii" x="413.698" y="299.394" width="241.989" height="137.589" filterUnits="userSpaceOnUse" color-interpolation-filters="sRGB">
    <feFlood flood-opacity="0" result="BackgroundImageFix"/>
    <feColorMatrix in="SourceAlpha" type="matrix" values="0 0 0 0 0 0 0 0 0 0 0 0 0 0 0 0 0 0 127 0" result="hardAlpha"/>
    <feOffset dx="-3.7666" dy="2.01048"/>
    <feGaussianBlur stdDeviation="6.03145"/>
    <feColorMatrix type="matrix" values="0 0 0 0 0.174688 0 0 0 0 0.35742 0 0 0 0 0.4875 0 0 0 1 0"/>
    <feBlend mode="normal" in2="BackgroundImageFix" result="effect1_dropShadow"/>
    <feBlend mode="normal" in="SourceGraphic" in2="effect1_dropShadow" result="shape"/>
    <feColorMatrix in="SourceAlpha" type="matrix" values="0 0 0 0 0 0 0 0 0 0 0 0 0 0 0 0 0 0 127 0" result="hardAlpha"/>
    <feOffset dx="22.1153"/>
    <feGaussianBlur stdDeviation="16.0839"/>
    <feComposite in2="hardAlpha" operator="arithmetic" k2="-1" k3="1"/>
    <feColorMatrix type="matrix" values="0 0 0 0 0.507917 0 0 0 0 0.628051 0 0 0 0 0.766667 0 0 0 0.49 0"/>
    <feBlend mode="normal" in2="shape" result="effect2_innerShadow"/>
    <feColorMatrix in="SourceAlpha" type="matrix" values="0 0 0 0 0 0 0 0 0 0 0 0 0 0 0 0 0 0 127 0" result="hardAlpha"/>
    <feOffset dx="4.02097"/>
    <feGaussianBlur stdDeviation="4.02097"/>
    <feComposite in2="hardAlpha" operator="arithmetic" k2="-1" k3="1"/>
    <feColorMatrix type="matrix" values="0 0 0 0 1 0 0 0 0 1 0 0 0 0 1 0 0 0 0.25 0"/>
    <feBlend mode="normal" in2="effect2_innerShadow" result="effect3_innerShadow"/>
    <feColorMatrix in="SourceAlpha" type="matrix" values="0 0 0 0 0 0 0 0 0 0 0 0 0 0 0 0 0 0 127 0" result="hardAlpha"/>
    <feOffset dx="7.53321" dy="-5.64991"/>
    <feGaussianBlur stdDeviation="6.59156"/>
    <feComposite in2="hardAlpha" operator="arithmetic" k2="-1" k3="1"/>
    <feColorMatrix type="matrix" values="0 0 0 0 0 0 0 0 0 0 0 0 0 0 0 0 0 0 0.25 0"/>
    <feBlend mode="normal" in2="effect3_innerShadow" result="effect4_innerShadow"/>
    </filter>
    <filter id="filter32_i" x="552.092" y="338.278" width="23.325" height="23.325" filterUnits="userSpaceOnUse" color-interpolation-filters="sRGB">
    <feFlood flood-opacity="0" result="BackgroundImageFix"/>
    <feBlend mode="normal" in="SourceGraphic" in2="BackgroundImageFix" result="shape"/>
    <feColorMatrix in="SourceAlpha" type="matrix" values="0 0 0 0 0 0 0 0 0 0 0 0 0 0 0 0 0 0 127 0" result="hardAlpha"/>
    <feOffset dx="-1.37174" dy="1.37174"/>
    <feGaussianBlur stdDeviation="1.37174"/>
    <feComposite in2="hardAlpha" operator="arithmetic" k2="-1" k3="1"/>
    <feColorMatrix type="matrix" values="0 0 0 0 1 0 0 0 0 1 0 0 0 0 1 0 0 0 0.5 0"/>
    <feBlend mode="normal" in2="shape" result="effect1_innerShadow"/>
    </filter>
    <filter id="filter33_f" x="560.485" y="343.694" width="21.6587" height="19.7616" filterUnits="userSpaceOnUse" color-interpolation-filters="sRGB">
    <feFlood flood-opacity="0" result="BackgroundImageFix"/>
    <feBlend mode="normal" in="SourceGraphic" in2="BackgroundImageFix" result="shape"/>
    <feGaussianBlur stdDeviation="3.42935" result="effect1_foregroundBlur"/>
    </filter>
    <filter id="filter34_f" x="567.65" y="351.212" width="8.15721" height="6.8466" filterUnits="userSpaceOnUse" color-interpolation-filters="sRGB">
    <feFlood flood-opacity="0" result="BackgroundImageFix"/>
    <feBlend mode="normal" in="SourceGraphic" in2="BackgroundImageFix" result="shape"/>
    <feGaussianBlur stdDeviation="0.68587" result="effect1_foregroundBlur"/>
    </filter>
    <filter id="filter35_i" x="443.092" y="341.46" width="23.325" height="23.325" filterUnits="userSpaceOnUse" color-interpolation-filters="sRGB">
    <feFlood flood-opacity="0" result="BackgroundImageFix"/>
    <feBlend mode="normal" in="SourceGraphic" in2="BackgroundImageFix" result="shape"/>
    <feColorMatrix in="SourceAlpha" type="matrix" values="0 0 0 0 0 0 0 0 0 0 0 0 0 0 0 0 0 0 127 0" result="hardAlpha"/>
    <feOffset dx="-1.37174" dy="1.37174"/>
    <feGaussianBlur stdDeviation="1.37174"/>
    <feComposite in2="hardAlpha" operator="arithmetic" k2="-1" k3="1"/>
    <feColorMatrix type="matrix" values="0 0 0 0 1 0 0 0 0 1 0 0 0 0 1 0 0 0 0.5 0"/>
    <feBlend mode="normal" in2="shape" result="effect1_innerShadow"/>
    </filter>
    <filter id="filter36_f" x="451.485" y="346.877" width="21.6587" height="19.7616" filterUnits="userSpaceOnUse" color-interpolation-filters="sRGB">
    <feFlood flood-opacity="0" result="BackgroundImageFix"/>
    <feBlend mode="normal" in="SourceGraphic" in2="BackgroundImageFix" result="shape"/>
    <feGaussianBlur stdDeviation="3.42935" result="effect1_foregroundBlur"/>
    </filter>
    <filter id="filter37_f" x="458.57" y="354.303" width="8.21198" height="6.82201" filterUnits="userSpaceOnUse" color-interpolation-filters="sRGB">
    <feFlood flood-opacity="0" result="BackgroundImageFix"/>
    <feBlend mode="normal" in="SourceGraphic" in2="BackgroundImageFix" result="shape"/>
    <feGaussianBlur stdDeviation="0.68587" result="effect1_foregroundBlur"/>
    </filter>
    <filter id="filter38_dd" x="433.258" y="420.675" width="123.584" height="85.0761" filterUnits="userSpaceOnUse" color-interpolation-filters="sRGB">
    <feFlood flood-opacity="0" result="BackgroundImageFix"/>
    <feColorMatrix in="SourceAlpha" type="matrix" values="0 0 0 0 0 0 0 0 0 0 0 0 0 0 0 0 0 0 127 0" result="hardAlpha"/>
    <feOffset dy="1.8833"/>
    <feGaussianBlur stdDeviation="7.53321"/>
    <feColorMatrix type="matrix" values="0 0 0 0 0.384314 0 0 0 0 0.231373 0 0 0 0 0.0862745 0 0 0 1 0"/>
    <feBlend mode="normal" in2="BackgroundImageFix" result="effect1_dropShadow"/>
    <feColorMatrix in="SourceAlpha" type="matrix" values="0 0 0 0 0 0 0 0 0 0 0 0 0 0 0 0 0 0 127 0" result="hardAlpha"/>
    <feOffset dx="-3.7666" dy="-1.8833"/>
    <feGaussianBlur stdDeviation="3.7666"/>
    <feColorMatrix type="matrix" values="0 0 0 0 0 0 0 0 0 0 0 0 0 0 0 0 0 0 0.25 0"/>
    <feBlend mode="normal" in2="effect1_dropShadow" result="effect2_dropShadow"/>
    <feBlend mode="normal" in="SourceGraphic" in2="effect2_dropShadow" result="shape"/>
    </filter>
    <filter id="filter39_f" x="375.793" y="453.758" width="278.987" height="145.773" filterUnits="userSpaceOnUse" color-interpolation-filters="sRGB">
    <feFlood flood-opacity="0" result="BackgroundImageFix"/>
    <feBlend mode="normal" in="SourceGraphic" in2="BackgroundImageFix" result="shape"/>
    <feGaussianBlur stdDeviation="11.2998" result="effect1_foregroundBlur"/>
    </filter>
    <filter id="filter40_f" x="424.216" y="399.713" width="262.986" height="128.998" filterUnits="userSpaceOnUse" color-interpolation-filters="sRGB">
    <feFlood flood-opacity="0" result="BackgroundImageFix"/>
    <feBlend mode="normal" in="SourceGraphic" in2="BackgroundImageFix" result="shape"/>
    <feGaussianBlur stdDeviation="14.1248" result="effect1_foregroundBlur"/>
    </filter>
    <filter id="filter41_f" x="424.82" y="428.525" width="145.957" height="97.0479" filterUnits="userSpaceOnUse" color-interpolation-filters="sRGB">
    <feFlood flood-opacity="0" result="BackgroundImageFix"/>
    <feBlend mode="normal" in="SourceGraphic" in2="BackgroundImageFix" result="shape"/>
    <feGaussianBlur stdDeviation="11.2998" result="effect1_foregroundBlur"/>
    </filter>
    <filter id="filter42_f" x="441.045" y="433.756" width="128.31" height="63.7825" filterUnits="userSpaceOnUse" color-interpolation-filters="sRGB">
    <feFlood flood-opacity="0" result="BackgroundImageFix"/>
    <feBlend mode="normal" in="SourceGraphic" in2="BackgroundImageFix" result="shape"/>
    <feGaussianBlur stdDeviation="2.82495" result="effect1_foregroundBlur"/>
    </filter>
    <linearGradient id="paint0_linear" x1="702.608" y1="499.66" x2="702.477" y2="588.56" gradientUnits="userSpaceOnUse">
    <stop stop-color="#613D1D"/>
    <stop offset="1" stop-color="#613D1D" stop-opacity="0"/>
    </linearGradient>
    <linearGradient id="paint1_linear" x1="698.912" y1="485.426" x2="698.836" y2="535.444" gradientUnits="userSpaceOnUse">
    <stop stop-color="#511F03"/>
    <stop offset="1" stop-color="#613D1D" stop-opacity="0"/>
    </linearGradient>
    <linearGradient id="paint2_linear" x1="529.343" y1="428.095" x2="420.564" y2="737.375" gradientUnits="userSpaceOnUse">
    <stop offset="0.364583" stop-color="#8C6639" stop-opacity="0"/>
    <stop offset="1" stop-color="#8C6639"/>
    </linearGradient>
    <linearGradient id="paint3_linear" x1="442.711" y1="763.323" x2="337.246" y2="760.498" gradientUnits="userSpaceOnUse">
    <stop stop-color="#E8C38D"/>
    <stop offset="1" stop-color="#BE9558" stop-opacity="0"/>
    </linearGradient>
    <linearGradient id="paint4_linear" x1="403.161" y1="583.467" x2="421.994" y2="653.15" gradientUnits="userSpaceOnUse">
    <stop stop-color="#946F41"/>
    <stop offset="1" stop-color="#946F41" stop-opacity="0"/>
    </linearGradient>
    <linearGradient id="paint5_linear" x1="279.806" y1="296.264" x2="276.039" y2="273.664" gradientUnits="userSpaceOnUse">
    <stop stop-color="#0C2339"/>
    <stop offset="1" stop-color="#32698E"/>
    </linearGradient>
    <linearGradient id="paint6_linear" x1="691.272" y1="298.16" x2="690.227" y2="291.482" gradientUnits="userSpaceOnUse">
    <stop stop-color="#0C2339"/>
    <stop offset="1" stop-color="#32698E"/>
    </linearGradient>
    <linearGradient id="paint7_linear" x1="506.831" y1="463.91" x2="502.699" y2="543.843" gradientUnits="userSpaceOnUse">
    <stop stop-color="#9E794C"/>
    <stop offset="1" stop-color="#9E794C" stop-opacity="0"/>
    </linearGradient>
    <linearGradient id="paint8_linear" x1="474.19" y1="468.742" x2="495.848" y2="488.516" gradientUnits="userSpaceOnUse">
    <stop stop-color="#F1D5A5"/>
    <stop offset="1" stop-color="#F5DFB9" stop-opacity="0"/>
    </linearGradient>
    </defs>
    </svg>
    