<svg width="32" height="32" viewBox="0 0 32 32" fill="none" xmlns="http://www.w3.org/2000/svg">
    <path d="M15.9998 11.9998C14.939 11.9998 13.9216 12.4213 13.1714 13.1714C12.4213 13.9216 11.9998 14.939 11.9998 15.9998C11.9998 17.0607 12.4213 18.0781 13.1714 18.8283C13.9216 19.5784 14.939 19.9998 15.9998 19.9998C17.0607 19.9998 18.0781 19.5784 18.8283 18.8283C19.5784 18.0781 19.9998 17.0607 19.9998 15.9998C19.9998 14.939 19.5784 13.9216 18.8283 13.1714C18.0781 12.4213 17.0607 11.9998 15.9998 11.9998ZM15.9998 9.33317C17.7679 9.33317 19.4636 10.0355 20.7139 11.2858C21.9641 12.536 22.6665 14.2317 22.6665 15.9998C22.6665 17.7679 21.9641 19.4636 20.7139 20.7139C19.4636 21.9641 17.7679 22.6665 15.9998 22.6665C14.2317 22.6665 12.536 21.9641 11.2858 20.7139C10.0355 19.4636 9.33317 17.7679 9.33317 15.9998C9.33317 14.2317 10.0355 12.536 11.2858 11.2858C12.536 10.0355 14.2317 9.33317 15.9998 9.33317ZM24.6665 8.99984C24.6665 9.44186 24.4909 9.86579 24.1784 10.1783C23.8658 10.4909 23.4419 10.6665 22.9998 10.6665C22.5578 10.6665 22.1339 10.4909 21.8213 10.1783C21.5088 9.86579 21.3332 9.44186 21.3332 8.99984C21.3332 8.55781 21.5088 8.13389 21.8213 7.82133C22.1339 7.50877 22.5578 7.33317 22.9998 7.33317C23.4419 7.33317 23.8658 7.50877 24.1784 7.82133C24.4909 8.13389 24.6665 8.55781 24.6665 8.99984ZM15.9998 5.33317C12.7012 5.33317 12.1625 5.3425 10.6278 5.4105C9.5825 5.45984 8.88117 5.59984 8.2305 5.85317C7.65184 6.07717 7.2345 6.34517 6.7905 6.7905C6.37318 7.1937 6.05231 7.68595 5.85184 8.2305C5.5985 8.88384 5.4585 9.58384 5.4105 10.6278C5.34117 12.0998 5.33317 12.6145 5.33317 15.9998C5.33317 19.2985 5.3425 19.8372 5.4105 21.3718C5.45984 22.4158 5.59984 23.1185 5.85184 23.7678C6.0785 24.3478 6.34517 24.7652 6.78784 25.2078C7.23717 25.6558 7.6545 25.9238 8.22784 26.1452C8.8865 26.3998 9.58784 26.5412 10.6278 26.5892C12.0998 26.6585 12.6145 26.6665 15.9998 26.6665C19.2985 26.6665 19.8372 26.6572 21.3718 26.5892C22.4145 26.5398 23.1172 26.3998 23.7678 26.1478C24.3452 25.9225 24.7652 25.6545 25.2078 25.2118C25.6572 24.7625 25.9252 24.3452 26.1465 23.7718C26.3998 23.1145 26.5412 22.4118 26.5892 21.3718C26.6585 19.8998 26.6665 19.3852 26.6665 15.9998C26.6665 12.7012 26.6572 12.1625 26.5892 10.6278C26.5398 9.58517 26.3998 8.88117 26.1465 8.2305C25.9456 7.68651 25.6253 7.19445 25.2092 6.7905C24.8061 6.37297 24.3139 6.05206 23.7692 5.85184C23.1158 5.5985 22.4145 5.4585 21.3718 5.4105C19.8998 5.34117 19.3852 5.33317 15.9998 5.33317ZM15.9998 2.6665C19.6225 2.6665 20.0745 2.67984 21.4958 2.7465C22.9158 2.81317 23.8825 3.03584 24.7332 3.3665C25.6132 3.70517 26.3545 4.16384 27.0958 4.90384C27.7738 5.57037 28.2984 6.37662 28.6332 7.2665C28.9625 8.11584 29.1865 9.08384 29.2532 10.5038C29.3158 11.9252 29.3332 12.3772 29.3332 15.9998C29.3332 19.6225 29.3198 20.0745 29.2532 21.4958C29.1865 22.9158 28.9625 23.8825 28.6332 24.7332C28.2994 25.6235 27.7747 26.43 27.0958 27.0958C26.4291 27.7736 25.6229 28.2982 24.7332 28.6332C23.8838 28.9625 22.9158 29.1865 21.4958 29.2532C20.0745 29.3158 19.6225 29.3332 15.9998 29.3332C12.3772 29.3332 11.9252 29.3198 10.5038 29.2532C9.08384 29.1865 8.11717 28.9625 7.2665 28.6332C6.37627 28.2991 5.56987 27.7744 4.90384 27.0958C4.22571 26.4294 3.70108 25.6231 3.3665 24.7332C3.03584 23.8838 2.81317 22.9158 2.7465 21.4958C2.68384 20.0745 2.6665 19.6225 2.6665 15.9998C2.6665 12.3772 2.67984 11.9252 2.7465 10.5038C2.81317 9.0825 3.03584 8.11717 3.3665 7.2665C3.70015 6.37608 4.22491 5.5696 4.90384 4.90384C5.57007 4.22548 6.37641 3.70081 7.2665 3.3665C8.11717 3.03584 9.0825 2.81317 10.5038 2.7465C11.9252 2.68384 12.3772 2.6665 15.9998 2.6665Z" fill="#1A3237"/>
    </svg>
    