<svg width="201" height="36" viewBox="0 0 201 36" fill="none" xmlns="http://www.w3.org/2000/svg">
    <path d="M65.785 14.576C65.785 15.552 65.561 16.448 65.113 17.264C64.665 18.064 63.977 18.712 63.049 19.208C62.121 19.704 60.969 19.952 59.593 19.952H57.049V26H52.945V9.152H59.593C60.937 9.152 62.073 9.384 63.001 9.848C63.929 10.312 64.625 10.952 65.089 11.768C65.553 12.584 65.785 13.52 65.785 14.576ZM59.281 16.688C60.065 16.688 60.649 16.504 61.033 16.136C61.417 15.768 61.609 15.248 61.609 14.576C61.609 13.904 61.417 13.384 61.033 13.016C60.649 12.648 60.065 12.464 59.281 12.464H57.049V16.688H59.281ZM72.0256 8.24V26H67.9216V8.24H72.0256ZM74.1837 19.28C74.1837 17.904 74.4397 16.696 74.9517 15.656C75.4797 14.616 76.1917 13.816 77.0877 13.256C77.9837 12.696 78.9837 12.416 80.0877 12.416C81.0317 12.416 81.8557 12.608 82.5597 12.992C83.2797 13.376 83.8317 13.88 84.2157 14.504V12.608H88.3197V26H84.2157V24.104C83.8157 24.728 83.2557 25.232 82.5357 25.616C81.8317 26 81.0077 26.192 80.0637 26.192C78.9757 26.192 77.9837 25.912 77.0877 25.352C76.1917 24.776 75.4797 23.968 74.9517 22.928C74.4397 21.872 74.1837 20.656 74.1837 19.28ZM84.2157 19.304C84.2157 18.28 83.9277 17.472 83.3517 16.88C82.7917 16.288 82.1037 15.992 81.2877 15.992C80.4717 15.992 79.7757 16.288 79.1997 16.88C78.6397 17.456 78.3597 18.256 78.3597 19.28C78.3597 20.304 78.6397 21.12 79.1997 21.728C79.7757 22.32 80.4717 22.616 81.2877 22.616C82.1037 22.616 82.7917 22.32 83.3517 21.728C83.9277 21.136 84.2157 20.328 84.2157 19.304ZM99.4488 12.464C101.017 12.464 102.265 12.976 103.193 14C104.137 15.008 104.609 16.4 104.609 18.176V26H100.529V18.728C100.529 17.832 100.297 17.136 99.8328 16.64C99.3688 16.144 98.7448 15.896 97.9608 15.896C97.1768 15.896 96.5528 16.144 96.0888 16.64C95.6248 17.136 95.3928 17.832 95.3928 18.728V26H91.2888V12.608H95.3928V14.384C95.8088 13.792 96.3688 13.328 97.0728 12.992C97.7768 12.64 98.5688 12.464 99.4488 12.464ZM114.925 22.52V26H112.837C111.349 26 110.189 25.64 109.357 24.92C108.525 24.184 108.109 22.992 108.109 21.344V16.016H106.477V12.608H108.109V9.344H112.213V12.608H114.901V16.016H112.213V21.392C112.213 21.792 112.309 22.08 112.501 22.256C112.693 22.432 113.013 22.52 113.461 22.52H114.925ZM132.497 17.36C133.473 17.568 134.257 18.056 134.849 18.824C135.441 19.576 135.737 20.44 135.737 21.416C135.737 22.824 135.241 23.944 134.249 24.776C133.273 25.592 131.905 26 130.145 26H122.297V9.152H129.881C131.593 9.152 132.929 9.544 133.889 10.328C134.865 11.112 135.353 12.176 135.353 13.52C135.353 14.512 135.089 15.336 134.561 15.992C134.049 16.648 133.361 17.104 132.497 17.36ZM126.401 15.968H129.089C129.761 15.968 130.273 15.824 130.625 15.536C130.993 15.232 131.177 14.792 131.177 14.216C131.177 13.64 130.993 13.2 130.625 12.896C130.273 12.592 129.761 12.44 129.089 12.44H126.401V15.968ZM129.425 22.688C130.113 22.688 130.641 22.536 131.009 22.232C131.393 21.912 131.585 21.456 131.585 20.864C131.585 20.272 131.385 19.808 130.985 19.472C130.601 19.136 130.065 18.968 129.377 18.968H126.401V22.688H129.425ZM151.341 12.608V26H147.237V24.176C146.821 24.768 146.253 25.248 145.533 25.616C144.829 25.968 144.045 26.144 143.181 26.144C142.157 26.144 141.253 25.92 140.469 25.472C139.685 25.008 139.077 24.344 138.645 23.48C138.213 22.616 137.997 21.6 137.997 20.432V12.608H142.077V19.88C142.077 20.776 142.309 21.472 142.773 21.968C143.237 22.464 143.861 22.712 144.645 22.712C145.445 22.712 146.077 22.464 146.541 21.968C147.005 21.472 147.237 20.776 147.237 19.88V12.608H151.341ZM153.473 19.28C153.473 17.904 153.729 16.696 154.241 15.656C154.769 14.616 155.481 13.816 156.377 13.256C157.273 12.696 158.273 12.416 159.377 12.416C160.257 12.416 161.057 12.6 161.777 12.968C162.513 13.336 163.089 13.832 163.505 14.456V8.24H167.609V26H163.505V24.08C163.121 24.72 162.569 25.232 161.849 25.616C161.145 26 160.321 26.192 159.377 26.192C158.273 26.192 157.273 25.912 156.377 25.352C155.481 24.776 154.769 23.968 154.241 22.928C153.729 21.872 153.473 20.656 153.473 19.28ZM163.505 19.304C163.505 18.28 163.217 17.472 162.641 16.88C162.081 16.288 161.393 15.992 160.577 15.992C159.761 15.992 159.065 16.288 158.489 16.88C157.929 17.456 157.649 18.256 157.649 19.28C157.649 20.304 157.929 21.12 158.489 21.728C159.065 22.32 159.761 22.616 160.577 22.616C161.393 22.616 162.081 22.32 162.641 21.728C163.217 21.136 163.505 20.328 163.505 19.304ZM169.762 19.28C169.762 17.904 170.018 16.696 170.53 15.656C171.058 14.616 171.77 13.816 172.666 13.256C173.562 12.696 174.562 12.416 175.666 12.416C176.546 12.416 177.346 12.6 178.066 12.968C178.802 13.336 179.378 13.832 179.794 14.456V8.24H183.898V26H179.794V24.08C179.41 24.72 178.858 25.232 178.138 25.616C177.434 26 176.61 26.192 175.666 26.192C174.562 26.192 173.562 25.912 172.666 25.352C171.77 24.776 171.058 23.968 170.53 22.928C170.018 21.872 169.762 20.656 169.762 19.28ZM179.794 19.304C179.794 18.28 179.506 17.472 178.93 16.88C178.37 16.288 177.682 15.992 176.866 15.992C176.05 15.992 175.354 16.288 174.778 16.88C174.218 17.456 173.938 18.256 173.938 19.28C173.938 20.304 174.218 21.12 174.778 21.728C175.354 22.32 176.05 22.616 176.866 22.616C177.682 22.616 178.37 22.32 178.93 21.728C179.506 21.136 179.794 20.328 179.794 19.304ZM200.547 12.608L192.147 32.36H187.731L190.803 25.544L185.355 12.608H189.939L193.035 20.984L196.107 12.608H200.547Z" fill="#435151"/>
    <path d="M33.8439 8.18652V10.3107C33.8439 20.5357 25.1847 25.1803 14.5046 25.1803H11.4393C11.781 21.9812 13.2927 20.045 17.2379 17.7445C19.1783 16.6133 19.0139 15.9601 18.0582 16.335C11.4764 18.916 8.20805 22.4039 8.06301 27.9737L8.05818 28.3666H4.83496C4.83496 26.919 5.02191 25.6052 5.39258 24.4028C5.02191 23.0285 4.83496 21.1634 4.83496 18.8076C4.83496 12.9416 12.0501 8.18652 20.951 8.18652C24.1742 8.18652 27.3975 9.24864 33.8439 8.18652Z" fill="#435151"/>
    </svg>
    