<svg width="32" height="32" viewBox="0 0 32 32" fill="none" xmlns="http://www.w3.org/2000/svg">
    <path d="M14.6665 2.6665C21.2905 2.6665 26.6665 8.0425 26.6665 14.6665C26.6665 21.2905 21.2905 26.6665 14.6665 26.6665C8.0425 26.6665 2.6665 21.2905 2.6665 14.6665C2.6665 8.0425 8.0425 2.6665 14.6665 2.6665ZM14.6665 23.9998C19.8225 23.9998 23.9998 19.8225 23.9998 14.6665C23.9998 9.50917 19.8225 5.33317 14.6665 5.33317C9.50917 5.33317 5.33317 9.50917 5.33317 14.6665C5.33317 19.8225 9.50917 23.9998 14.6665 23.9998ZM25.9798 24.0945L29.7518 27.8652L27.8652 29.7518L24.0945 25.9798L25.9798 24.0945Z" fill="white"/>
    </svg>
    