<svg width="32" height="32" viewBox="0 0 32 32" fill="none" xmlns="http://www.w3.org/2000/svg">
    <path d="M20.3999 7.39983C19.3865 7.39966 18.4135 7.79732 17.6904 8.50725C16.9673 9.21718 16.5517 10.1826 16.5332 11.1958L16.4959 13.2958C16.4937 13.4086 16.4677 13.5196 16.4196 13.6216C16.3715 13.7236 16.3023 13.8143 16.2167 13.8877C16.1311 13.9611 16.0309 14.0155 15.9228 14.0475C15.8146 14.0795 15.701 14.0882 15.5892 14.0732L13.5079 13.7905C10.7692 13.4172 8.1452 12.1558 5.62786 10.0585C4.83053 14.4718 6.38786 17.5292 10.1385 19.8878L12.4679 21.3518C12.5785 21.4214 12.6705 21.517 12.7357 21.6303C12.8008 21.7436 12.8373 21.8712 12.8417 22.0018C12.8462 22.1324 12.8186 22.2622 12.7613 22.3797C12.704 22.4972 12.6189 22.5989 12.5132 22.6758L10.3905 24.2265C11.6532 24.3052 12.8519 24.2492 13.8465 24.0518C20.1372 22.7958 24.3199 18.0625 24.3199 10.2545C24.3199 9.61716 22.9705 7.39983 20.3999 7.39983ZM13.8665 11.1465C13.8898 9.86123 14.2917 8.61139 15.0219 7.55346C15.7522 6.49553 16.7783 5.67652 17.9718 5.19898C19.1652 4.72145 20.4731 4.6066 21.7315 4.86882C22.99 5.13105 24.1431 5.75869 25.0465 6.67316C25.9945 6.66649 26.8012 6.90649 28.6052 5.81316C28.1585 7.99983 27.9385 8.94916 26.9865 10.2545C26.9865 20.4438 20.7239 25.3985 14.3692 26.6665C10.0119 27.5358 3.67586 26.1078 1.85986 24.2118C2.7852 24.1398 6.5452 23.7358 8.71853 22.1452C6.87986 20.9332 -0.438803 16.6265 4.37053 5.04783C6.62786 7.68383 8.9172 9.47849 11.2372 10.4305C12.7812 11.0638 13.1599 11.0505 13.8679 11.1478L13.8665 11.1465Z" fill="#1A3237"/>
    </svg>
    